<svg width="208" height="642" viewBox="0 0 208 642" fill="none" xmlns="http://www.w3.org/2000/svg">
<g filter="url(#filter0_f_1273_17)">
<path d="M137 92C137 136.183 137 172 104.5 172C72 172 72 136.183 72 92C72 47.8172 72 12 104.5 12C137 12 137 47.8172 137 92Z" fill="#434547"/>
</g>
<path d="M44 380H164V626L160 631L154 635.5L148 639L139 641.5H68.5L60.5 639L54 635.5L48 631L44 626V380Z" fill="url(#paint0_linear_1273_17)"/>
<path d="M0 224C0 170.981 42.9807 128 96 128H112C165.019 128 208 170.981 208 224V358C208 377.33 192.33 393 173 393H35C15.67 393 0 377.33 0 358V224Z" fill="url(#paint1_linear_1273_17)"/>
<rect y="237" width="208" height="124" fill="url(#paint2_linear_1273_17)"/>
<path d="M12.8438 317V277H26.8281C29.6146 277 31.9128 277.482 33.7227 278.445C35.5326 279.396 36.8802 280.678 37.7656 282.293C38.651 283.895 39.0938 285.672 39.0938 287.625C39.0938 289.344 38.7878 290.763 38.1758 291.883C37.5768 293.003 36.7826 293.888 35.793 294.539C34.8164 295.19 33.7552 295.672 32.6094 295.984V296.375C33.8333 296.453 35.0638 296.883 36.3008 297.664C37.5378 298.445 38.5729 299.565 39.4063 301.023C40.2396 302.482 40.6562 304.266 40.6562 306.375C40.6562 308.38 40.2005 310.184 39.2891 311.785C38.3776 313.387 36.9388 314.656 34.9727 315.594C33.0065 316.531 30.4479 317 27.2969 317H12.8438ZM17.6875 312.703H27.2969C30.4609 312.703 32.707 312.091 34.0352 310.867C35.3763 309.63 36.0469 308.133 36.0469 306.375C36.0469 305.021 35.7018 303.771 35.0117 302.625C34.3216 301.466 33.3385 300.542 32.0625 299.852C30.7865 299.148 29.276 298.797 27.5313 298.797H17.6875V312.703ZM17.6875 294.578H26.6719C28.1302 294.578 29.4453 294.292 30.6172 293.719C31.8021 293.146 32.7396 292.339 33.4297 291.297C34.1328 290.255 34.4844 289.031 34.4844 287.625C34.4844 285.867 33.8724 284.376 32.6484 283.152C31.4245 281.915 29.4844 281.297 26.8281 281.297H17.6875V294.578ZM63.8684 317.625C60.9777 317.625 58.4842 316.987 56.3879 315.711C54.3046 314.422 52.6965 312.625 51.5637 310.32C50.4439 308.003 49.884 305.307 49.884 302.234C49.884 299.161 50.4439 296.453 51.5637 294.109C52.6965 291.753 54.272 289.917 56.2902 288.602C58.3215 287.273 60.6913 286.609 63.3996 286.609C64.9621 286.609 66.5051 286.87 68.0285 287.391C69.552 287.911 70.9387 288.758 72.1887 289.93C73.4387 291.089 74.4348 292.625 75.177 294.539C75.9191 296.453 76.2902 298.81 76.2902 301.609V303.562H53.1652V299.578H71.6027C71.6027 297.885 71.2642 296.375 70.5871 295.047C69.923 293.719 68.9725 292.671 67.7355 291.902C66.5116 291.134 65.0663 290.75 63.3996 290.75C61.5637 290.75 59.9751 291.206 58.634 292.117C57.3059 293.016 56.2837 294.187 55.5676 295.633C54.8514 297.078 54.4934 298.628 54.4934 300.281V302.938C54.4934 305.203 54.884 307.124 55.6652 308.699C56.4595 310.262 57.5598 311.453 58.966 312.273C60.3723 313.081 62.0064 313.484 63.8684 313.484C65.0793 313.484 66.173 313.315 67.1496 312.977C68.1392 312.625 68.9921 312.104 69.7082 311.414C70.4243 310.711 70.9777 309.839 71.3684 308.797L75.8215 310.047C75.3527 311.557 74.565 312.885 73.4582 314.031C72.3514 315.164 70.9842 316.049 69.3566 316.687C67.729 317.313 65.8996 317.625 63.8684 317.625ZM91.2113 298.953V317H86.602V287H91.0551V291.687H91.4457C92.1488 290.164 93.2165 288.94 94.6488 288.016C96.0811 287.078 97.9301 286.609 100.196 286.609C102.227 286.609 104.004 287.026 105.528 287.859C107.051 288.68 108.236 289.93 109.082 291.609C109.929 293.276 110.352 295.385 110.352 297.938V317H105.743V298.25C105.743 295.893 105.131 294.057 103.907 292.742C102.683 291.414 101.003 290.75 98.8676 290.75C97.3962 290.75 96.0811 291.069 94.9223 291.707C93.7764 292.345 92.8715 293.276 92.2074 294.5C91.5434 295.724 91.2113 297.208 91.2113 298.953ZM121.215 317V313.484L138.247 291.609V291.297H121.762V287H144.184V290.672L127.622 312.391V312.703H144.731V317H121.215ZM155.131 317V287H159.74V317H155.131ZM157.474 282C156.576 282 155.801 281.694 155.15 281.082C154.512 280.47 154.193 279.734 154.193 278.875C154.193 278.016 154.512 277.28 155.15 276.668C155.801 276.056 156.576 275.75 157.474 275.75C158.373 275.75 159.141 276.056 159.779 276.668C160.43 277.28 160.756 278.016 160.756 278.875C160.756 279.734 160.43 280.47 159.779 281.082C159.141 281.694 158.373 282 157.474 282ZM176.092 298.953V317H171.482V287H175.936V291.687H176.326C177.029 290.164 178.097 288.94 179.529 288.016C180.962 287.078 182.811 286.609 185.076 286.609C187.107 286.609 188.885 287.026 190.408 287.859C191.932 288.68 193.117 289.93 193.963 291.609C194.809 293.276 195.232 295.385 195.232 297.938V317H190.623V298.25C190.623 295.893 190.011 294.057 188.787 292.742C187.563 291.414 185.883 290.75 183.748 290.75C182.277 290.75 180.962 291.069 179.803 291.707C178.657 292.345 177.752 293.276 177.088 294.5C176.424 295.724 176.092 297.208 176.092 298.953Z" fill="black"/>
<defs>
<filter id="filter0_f_1273_17" x="60" y="0" width="89" height="184" filterUnits="userSpaceOnUse" color-interpolation-filters="sRGB">
<feFlood flood-opacity="0" result="BackgroundImageFix"/>
<feBlend mode="normal" in="SourceGraphic" in2="BackgroundImageFix" result="shape"/>
<feGaussianBlur stdDeviation="6" result="effect1_foregroundBlur_1273_17"/>
</filter>
<linearGradient id="paint0_linear_1273_17" x1="104" y1="380" x2="104" y2="635" gradientUnits="userSpaceOnUse">
<stop stop-color="#424446"/>
<stop offset="0.0479414" stop-color="#424446"/>
<stop offset="0.0930637" stop-color="#242628"/>
<stop offset="0.138186" stop-color="#212425"/>
<stop offset="0.185457" stop-color="#26282B"/>
<stop offset="0.230579" stop-color="#1D1F20"/>
<stop offset="0.279999" stop-color="#232527"/>
<stop offset="0.32727" stop-color="#1C1E1F"/>
<stop offset="0.374541" stop-color="#232527"/>
<stop offset="0.421812" stop-color="#1D1E21"/>
<stop offset="0.469083" stop-color="#202325"/>
<stop offset="0.518502" stop-color="#1B1D1F"/>
<stop offset="0.557179" stop-color="#232527"/>
<stop offset="0.60445" stop-color="#1C1E20"/>
<stop offset="0.645274" stop-color="#232627"/>
<stop offset="0.696843" stop-color="#1E2021"/>
<stop offset="0.741965" stop-color="#232527"/>
<stop offset="0.791385" stop-color="#1C1E20"/>
<stop offset="0.851548" stop-color="#252729"/>
<stop offset="1" stop-color="#27292B"/>
</linearGradient>
<linearGradient id="paint1_linear_1273_17" x1="104" y1="128" x2="104" y2="393" gradientUnits="userSpaceOnUse">
<stop stop-color="#434547"/>
<stop offset="1" stop-color="#424446"/>
</linearGradient>
<linearGradient id="paint2_linear_1273_17" x1="104" y1="237" x2="104" y2="361" gradientUnits="userSpaceOnUse">
<stop stop-color="#146C0A"/>
<stop offset="0.331224" stop-color="#26B21C"/>
<stop offset="0.553232" stop-color="#25B21D"/>
<stop offset="0.719178" stop-color="#23AC1C"/>
<stop offset="1" stop-color="#0B5407"/>
</linearGradient>
</defs>
</svg>
