<svg width="45" height="62" viewBox="0 0 45 62" fill="none" xmlns="http://www.w3.org/2000/svg">
<path d="M10.5 16.4995C14.5 9.29951 16.1667 3.66518 16.5 1.49852C16.7213 0.0603386 18.0005 -0.502483 19 0.999505C20.4089 3.11664 25.5 7.99951 27.5 9.99951C29.5 11.9995 44.5 25.4995 44.5 40.9995C44.5 61.5 21.5 64.5 27 59.4995C30.6995 56.136 34.5 51.4995 34.5 43.4995C34.5 35.4995 24.5 20.9995 24.5 25.4995C24.5 39.9995 21.5 43.9995 20 43.9995C18.5 43.9995 16.5 33.5 15.5 35.9995C14.5714 38.3206 11.5 42.4995 11.5 48.9995C11.5 55.4995 21 62.9995 14.5 60.9995C8 58.9995 0 52 0 42C0 32 5.5 25.4995 10.5 16.4995Z" fill="#A49A14"/>
</svg>
