<svg width="208" height="642" viewBox="0 0 208 642" fill="none" xmlns="http://www.w3.org/2000/svg">
<g filter="url(#filter0_f_1273_29)">
<path d="M137 92C137 136.183 137 172 104.5 172C72 172 72 136.183 72 92C72 47.8172 72 12 104.5 12C137 12 137 47.8172 137 92Z" fill="#434547"/>
</g>
<path d="M44 380H164V626L160 631L154 635.5L148 639L139 641.5H68.5L60.5 639L54 635.5L48 631L44 626V380Z" fill="url(#paint0_linear_1273_29)"/>
<path d="M0 224C0 170.981 42.9807 128 96 128H112C165.019 128 208 170.981 208 224V358C208 377.33 192.33 393 173 393H35C15.67 393 0 377.33 0 358V224Z" fill="url(#paint1_linear_1273_29)"/>
<rect y="237" width="208" height="124" fill="url(#paint2_linear_1273_29)"/>
<path d="M47.0064 287C46.7721 285.021 45.8216 283.484 44.1549 282.391C42.4882 281.297 40.4439 280.75 38.0221 280.75C36.2512 280.75 34.7018 281.036 33.3736 281.609C32.0585 282.182 31.0299 282.97 30.2877 283.973C29.5585 284.975 29.1939 286.115 29.1939 287.391C29.1939 288.458 29.4479 289.376 29.9557 290.145C30.4765 290.9 31.1406 291.531 31.9479 292.039C32.7551 292.534 33.6015 292.944 34.4869 293.27C35.3723 293.582 36.1861 293.836 36.9283 294.031L40.9908 295.125C42.0325 295.398 43.1913 295.776 44.4674 296.258C45.7564 296.74 46.9869 297.397 48.1588 298.23C49.3437 299.051 50.3202 300.105 51.0885 301.395C51.8567 302.684 52.2408 304.266 52.2408 306.141C52.2408 308.302 51.6744 310.255 50.5416 312C49.4218 313.745 47.7812 315.132 45.6197 316.16C43.4713 317.189 40.8606 317.703 37.7877 317.703C34.9231 317.703 32.4426 317.241 30.3463 316.316C28.263 315.392 26.6223 314.103 25.4244 312.449C24.2395 310.796 23.5689 308.875 23.4127 306.688H28.4127C28.5429 308.198 29.0507 309.448 29.9361 310.437C30.8346 311.414 31.9674 312.143 33.3346 312.625C34.7148 313.094 36.1992 313.328 37.7877 313.328C39.6367 313.328 41.2968 313.029 42.7682 312.43C44.2395 311.818 45.4049 310.971 46.2643 309.891C47.1236 308.797 47.5533 307.521 47.5533 306.062C47.5533 304.734 47.1822 303.654 46.44 302.82C45.6979 301.987 44.7213 301.31 43.5104 300.789C42.2994 300.268 40.9908 299.812 39.5846 299.422L34.6627 298.016C31.5377 297.117 29.0637 295.835 27.2408 294.168C25.4179 292.501 24.5064 290.32 24.5064 287.625C24.5064 285.385 25.1119 283.432 26.3229 281.766C27.5468 280.086 29.1874 278.784 31.2447 277.859C33.315 276.922 35.6262 276.453 38.1783 276.453C40.7564 276.453 43.0481 276.915 45.0533 277.84C47.0585 278.751 48.6471 280.001 49.8189 281.59C51.0038 283.178 51.6288 284.982 51.6939 287H47.0064ZM75.9266 287V290.906H60.3797V287H75.9266ZM64.9109 279.812H69.5203V308.406C69.5203 309.708 69.7091 310.685 70.0867 311.336C70.4773 311.974 70.9721 312.404 71.5711 312.625C72.1831 312.833 72.8276 312.937 73.5047 312.937C74.0125 312.937 74.4292 312.911 74.7547 312.859C75.0802 312.794 75.3406 312.742 75.5359 312.703L76.4734 316.844C76.1609 316.961 75.7247 317.078 75.1648 317.195C74.6049 317.326 73.8953 317.391 73.0359 317.391C71.7339 317.391 70.4578 317.111 69.2078 316.551C67.9708 315.991 66.9422 315.138 66.1219 313.992C65.3146 312.846 64.9109 311.401 64.9109 309.656V279.812ZM86.1602 317V287H90.6133V291.531H90.9258C91.4727 290.047 92.4622 288.842 93.8945 287.918C95.3268 286.993 96.9414 286.531 98.7383 286.531C99.0768 286.531 99.5 286.538 100.008 286.551C100.516 286.564 100.9 286.583 101.16 286.609V291.297C101.004 291.258 100.646 291.199 100.086 291.121C99.5391 291.03 98.9596 290.984 98.3477 290.984C96.8893 290.984 95.5872 291.29 94.4414 291.902C93.3086 292.501 92.4102 293.335 91.7461 294.402C91.0951 295.457 90.7695 296.661 90.7695 298.016V317H86.1602ZM121.198 317.625C118.49 317.625 116.114 316.98 114.07 315.691C112.038 314.402 110.45 312.599 109.304 310.281C108.171 307.964 107.605 305.255 107.605 302.156C107.605 299.031 108.171 296.303 109.304 293.973C110.45 291.642 112.038 289.832 114.07 288.543C116.114 287.254 118.49 286.609 121.198 286.609C123.907 286.609 126.277 287.254 128.308 288.543C130.352 289.832 131.941 291.642 133.073 293.973C134.219 296.303 134.792 299.031 134.792 302.156C134.792 305.255 134.219 307.964 133.073 310.281C131.941 312.599 130.352 314.402 128.308 315.691C126.277 316.98 123.907 317.625 121.198 317.625ZM121.198 313.484C123.256 313.484 124.948 312.957 126.277 311.902C127.605 310.848 128.588 309.461 129.226 307.742C129.864 306.023 130.183 304.161 130.183 302.156C130.183 300.151 129.864 298.283 129.226 296.551C128.588 294.819 127.605 293.419 126.277 292.352C124.948 291.284 123.256 290.75 121.198 290.75C119.141 290.75 117.448 291.284 116.12 292.352C114.792 293.419 113.809 294.819 113.171 296.551C112.533 298.283 112.214 300.151 112.214 302.156C112.214 304.161 112.533 306.023 113.171 307.742C113.809 309.461 114.792 310.848 116.12 311.902C117.448 312.957 119.141 313.484 121.198 313.484ZM145.128 317V287H149.581V291.687H149.972C150.597 290.086 151.606 288.842 152.999 287.957C154.393 287.059 156.066 286.609 158.019 286.609C159.998 286.609 161.645 287.059 162.96 287.957C164.288 288.842 165.324 290.086 166.066 291.687H166.378C167.147 290.138 168.299 288.908 169.835 287.996C171.372 287.072 173.214 286.609 175.363 286.609C178.045 286.609 180.239 287.449 181.945 289.129C183.65 290.796 184.503 293.393 184.503 296.922V317H179.894V296.922C179.894 294.708 179.288 293.126 178.078 292.176C176.867 291.225 175.441 290.75 173.8 290.75C171.691 290.75 170.057 291.388 168.898 292.664C167.739 293.927 167.16 295.529 167.16 297.469V317H162.472V296.453C162.472 294.747 161.919 293.374 160.812 292.332C159.705 291.277 158.279 290.75 156.535 290.75C155.337 290.75 154.217 291.069 153.175 291.707C152.147 292.345 151.313 293.23 150.675 294.363C150.05 295.483 149.738 296.779 149.738 298.25V317H145.128Z" fill="black"/>
<defs>
<filter id="filter0_f_1273_29" x="60" y="0" width="89" height="184" filterUnits="userSpaceOnUse" color-interpolation-filters="sRGB">
<feFlood flood-opacity="0" result="BackgroundImageFix"/>
<feBlend mode="normal" in="SourceGraphic" in2="BackgroundImageFix" result="shape"/>
<feGaussianBlur stdDeviation="6" result="effect1_foregroundBlur_1273_29"/>
</filter>
<linearGradient id="paint0_linear_1273_29" x1="104" y1="380" x2="104" y2="635" gradientUnits="userSpaceOnUse">
<stop stop-color="#424446"/>
<stop offset="0.0479414" stop-color="#424446"/>
<stop offset="0.0930637" stop-color="#242628"/>
<stop offset="0.138186" stop-color="#212425"/>
<stop offset="0.185457" stop-color="#26282B"/>
<stop offset="0.230579" stop-color="#1D1F20"/>
<stop offset="0.279999" stop-color="#232527"/>
<stop offset="0.32727" stop-color="#1C1E1F"/>
<stop offset="0.374541" stop-color="#232527"/>
<stop offset="0.421812" stop-color="#1D1E21"/>
<stop offset="0.469083" stop-color="#202325"/>
<stop offset="0.518502" stop-color="#1B1D1F"/>
<stop offset="0.557179" stop-color="#232527"/>
<stop offset="0.60445" stop-color="#1C1E20"/>
<stop offset="0.645274" stop-color="#232627"/>
<stop offset="0.696843" stop-color="#1E2021"/>
<stop offset="0.741965" stop-color="#232527"/>
<stop offset="0.791385" stop-color="#1C1E20"/>
<stop offset="0.851548" stop-color="#252729"/>
<stop offset="1" stop-color="#27292B"/>
</linearGradient>
<linearGradient id="paint1_linear_1273_29" x1="104" y1="128" x2="104" y2="393" gradientUnits="userSpaceOnUse">
<stop stop-color="#434547"/>
<stop offset="1" stop-color="#424446"/>
</linearGradient>
<linearGradient id="paint2_linear_1273_29" x1="104" y1="237" x2="104" y2="361" gradientUnits="userSpaceOnUse">
<stop stop-color="#0C454D"/>
<stop offset="0.331224" stop-color="#118497"/>
<stop offset="0.553232" stop-color="#1298AF"/>
<stop offset="0.719178" stop-color="#0F7789"/>
<stop offset="1" stop-color="#0C505A"/>
</linearGradient>
</defs>
</svg>
