<svg width="208" height="642" viewBox="0 0 208 642" fill="none" xmlns="http://www.w3.org/2000/svg">
<g filter="url(#filter0_f_1273_16)">
<path d="M137 92C137 136.183 137 172 104.5 172C72 172 72 136.183 72 92C72 47.8172 72 12 104.5 12C137 12 137 47.8172 137 92Z" fill="#434547"/>
</g>
<path d="M44 380H164V626L160 631L154 635.5L148 639L139 641.5H68.5L60.5 639L54 635.5L48 631L44 626V380Z" fill="url(#paint0_linear_1273_16)"/>
<path d="M0 224C0 170.981 42.9807 128 96 128H112C165.019 128 208 170.981 208 224V358C208 377.33 192.33 393 173 393H35C15.67 393 0 377.33 0 358V224Z" fill="url(#paint1_linear_1273_16)"/>
<rect y="237" width="208" height="124" fill="url(#paint2_linear_1273_16)"/>
<path d="M34.2407 317H21.897V277H34.7876C38.6678 277 41.9881 277.801 44.7485 279.402C47.509 280.991 49.6248 283.276 51.0962 286.258C52.5675 289.227 53.3032 292.781 53.3032 296.922C53.3032 301.089 52.561 304.676 51.0767 307.684C49.5923 310.678 47.4308 312.983 44.5923 314.598C41.7537 316.199 38.3032 317 34.2407 317ZM26.7407 312.703H33.9282C37.2355 312.703 39.9764 312.065 42.1509 310.789C44.3254 309.513 45.9465 307.697 47.0142 305.34C48.0819 302.983 48.6157 300.177 48.6157 296.922C48.6157 293.693 48.0884 290.913 47.0337 288.582C45.979 286.238 44.4035 284.441 42.3071 283.191C40.2108 281.928 37.6001 281.297 34.4751 281.297H26.7407V312.703ZM64.1032 317V287H68.7126V317H64.1032ZM66.447 282C65.5485 282 64.7738 281.694 64.1228 281.082C63.4847 280.47 63.1657 279.734 63.1657 278.875C63.1657 278.016 63.4847 277.28 64.1228 276.668C64.7738 276.056 65.5485 275.75 66.447 275.75C67.3454 275.75 68.1136 276.056 68.7517 276.668C69.4027 277.28 69.7282 278.016 69.7282 278.875C69.7282 279.734 69.4027 280.47 68.7517 281.082C68.1136 281.694 67.3454 282 66.447 282ZM93.0331 317.625C90.1425 317.625 87.649 316.987 85.5526 315.711C83.4693 314.422 81.8612 312.625 80.7284 310.32C79.6086 308.003 79.0487 305.307 79.0487 302.234C79.0487 299.161 79.6086 296.453 80.7284 294.109C81.8612 291.753 83.4367 289.917 85.455 288.602C87.4862 287.273 89.856 286.609 92.5644 286.609C94.1269 286.609 95.6698 286.87 97.1933 287.391C98.7167 287.911 100.103 288.758 101.353 289.93C102.603 291.089 103.6 292.625 104.342 294.539C105.084 296.453 105.455 298.81 105.455 301.609V303.562H82.33V299.578H100.767C100.767 297.885 100.429 296.375 99.7519 295.047C99.0878 293.719 98.1373 292.671 96.9003 291.902C95.6763 291.134 94.231 290.75 92.5644 290.75C90.7284 290.75 89.1399 291.206 87.7987 292.117C86.4706 293.016 85.4485 294.187 84.7323 295.633C84.0162 297.078 83.6581 298.628 83.6581 300.281V302.938C83.6581 305.203 84.0487 307.124 84.83 308.699C85.6242 310.262 86.7245 311.453 88.1308 312.273C89.537 313.081 91.1711 313.484 93.0331 313.484C94.244 313.484 95.3378 313.315 96.3144 312.977C97.3039 312.625 98.1568 312.104 98.8729 311.414C99.5891 310.711 100.142 309.839 100.533 308.797L104.986 310.047C104.517 311.557 103.73 312.885 102.623 314.031C101.516 315.164 100.149 316.049 98.5214 316.687C96.8938 317.313 95.0644 317.625 93.0331 317.625ZM137.017 293.719L132.876 294.891C132.616 294.201 132.232 293.53 131.724 292.879C131.229 292.215 130.552 291.668 129.692 291.238C128.833 290.809 127.733 290.594 126.392 290.594C124.556 290.594 123.026 291.017 121.802 291.863C120.591 292.697 119.985 293.758 119.985 295.047C119.985 296.193 120.402 297.098 121.235 297.762C122.069 298.426 123.371 298.979 125.142 299.422L129.595 300.516C132.277 301.167 134.276 302.163 135.591 303.504C136.906 304.832 137.564 306.544 137.564 308.641C137.564 310.359 137.069 311.896 136.079 313.25C135.103 314.604 133.735 315.672 131.978 316.453C130.22 317.234 128.176 317.625 125.845 317.625C122.785 317.625 120.252 316.961 118.247 315.633C116.242 314.305 114.972 312.365 114.439 309.812L118.814 308.719C119.23 310.333 120.018 311.544 121.177 312.352C122.349 313.159 123.879 313.562 125.767 313.562C127.915 313.562 129.621 313.107 130.884 312.195C132.16 311.271 132.798 310.164 132.798 308.875C132.798 307.833 132.433 306.961 131.704 306.258C130.975 305.542 129.855 305.008 128.345 304.656L123.345 303.484C120.597 302.833 118.579 301.824 117.29 300.457C116.014 299.077 115.376 297.352 115.376 295.281C115.376 293.589 115.851 292.091 116.802 290.789C117.765 289.487 119.074 288.465 120.728 287.723C122.394 286.98 124.282 286.609 126.392 286.609C129.36 286.609 131.691 287.26 133.384 288.562C135.09 289.865 136.301 291.583 137.017 293.719ZM160.38 317.625C157.49 317.625 154.996 316.987 152.9 315.711C150.816 314.422 149.208 312.625 148.075 310.32C146.956 308.003 146.396 305.307 146.396 302.234C146.396 299.161 146.956 296.453 148.075 294.109C149.208 291.753 150.784 289.917 152.802 288.602C154.833 287.273 157.203 286.609 159.911 286.609C161.474 286.609 163.017 286.87 164.54 287.391C166.064 287.911 167.45 288.758 168.7 289.93C169.95 291.089 170.947 292.625 171.689 294.539C172.431 296.453 172.802 298.81 172.802 301.609V303.562H149.677V299.578H168.115C168.115 297.885 167.776 296.375 167.099 295.047C166.435 293.719 165.484 292.671 164.247 291.902C163.023 291.134 161.578 290.75 159.911 290.75C158.075 290.75 156.487 291.206 155.146 292.117C153.818 293.016 152.796 294.187 152.079 295.633C151.363 297.078 151.005 298.628 151.005 300.281V302.938C151.005 305.203 151.396 307.124 152.177 308.699C152.971 310.262 154.072 311.453 155.478 312.273C156.884 313.081 158.518 313.484 160.38 313.484C161.591 313.484 162.685 313.315 163.661 312.977C164.651 312.625 165.504 312.104 166.22 311.414C166.936 310.711 167.49 309.839 167.88 308.797L172.333 310.047C171.865 311.557 171.077 312.885 169.97 314.031C168.863 315.164 167.496 316.049 165.868 316.687C164.241 317.313 162.411 317.625 160.38 317.625ZM187.723 277V317H183.114V277H187.723Z" fill="black"/>
<defs>
<filter id="filter0_f_1273_16" x="60" y="0" width="89" height="184" filterUnits="userSpaceOnUse" color-interpolation-filters="sRGB">
<feFlood flood-opacity="0" result="BackgroundImageFix"/>
<feBlend mode="normal" in="SourceGraphic" in2="BackgroundImageFix" result="shape"/>
<feGaussianBlur stdDeviation="6" result="effect1_foregroundBlur_1273_16"/>
</filter>
<linearGradient id="paint0_linear_1273_16" x1="104" y1="380" x2="104" y2="635" gradientUnits="userSpaceOnUse">
<stop stop-color="#424446"/>
<stop offset="0.0479414" stop-color="#424446"/>
<stop offset="0.0930637" stop-color="#242628"/>
<stop offset="0.138186" stop-color="#212425"/>
<stop offset="0.185457" stop-color="#26282B"/>
<stop offset="0.230579" stop-color="#1D1F20"/>
<stop offset="0.279999" stop-color="#232527"/>
<stop offset="0.32727" stop-color="#1C1E1F"/>
<stop offset="0.374541" stop-color="#232527"/>
<stop offset="0.421812" stop-color="#1D1E21"/>
<stop offset="0.469083" stop-color="#202325"/>
<stop offset="0.518502" stop-color="#1B1D1F"/>
<stop offset="0.557179" stop-color="#232527"/>
<stop offset="0.60445" stop-color="#1C1E20"/>
<stop offset="0.645274" stop-color="#232627"/>
<stop offset="0.696843" stop-color="#1E2021"/>
<stop offset="0.741965" stop-color="#232527"/>
<stop offset="0.791385" stop-color="#1C1E20"/>
<stop offset="0.851548" stop-color="#252729"/>
<stop offset="1" stop-color="#27292B"/>
</linearGradient>
<linearGradient id="paint1_linear_1273_16" x1="104" y1="128" x2="104" y2="393" gradientUnits="userSpaceOnUse">
<stop stop-color="#434547"/>
<stop offset="1" stop-color="#424446"/>
</linearGradient>
<linearGradient id="paint2_linear_1273_16" x1="104" y1="237" x2="104" y2="361" gradientUnits="userSpaceOnUse">
<stop stop-color="#482005"/>
<stop offset="0.331224" stop-color="#9B5A2C"/>
<stop offset="0.553232" stop-color="#B56B38"/>
<stop offset="0.719178" stop-color="#8F5224"/>
<stop offset="1" stop-color="#4E2507"/>
</linearGradient>
</defs>
</svg>
