<svg width="208" height="642" viewBox="0 0 208 642" fill="none" xmlns="http://www.w3.org/2000/svg">
<g filter="url(#filter0_f_1273_23)">
<path d="M137 92C137 136.183 137 172 104.5 172C72 172 72 136.183 72 92C72 47.8172 72 12 104.5 12C137 12 137 47.8172 137 92Z" fill="#434547"/>
</g>
<path d="M44 380H164V626L160 631L154 635.5L148 639L139 641.5H68.5L60.5 639L54 635.5L48 631L44 626V380Z" fill="url(#paint0_linear_1273_23)"/>
<path d="M0 224C0 170.981 42.9807 128 96 128H112C165.019 128 208 170.981 208 224V358C208 377.33 192.33 393 173 393H35C15.67 393 0 377.33 0 358V224Z" fill="url(#paint1_linear_1273_23)"/>
<rect y="237" width="208" height="124" fill="url(#paint2_linear_1273_23)"/>
<path d="M77.4476 289.5C77.0179 288.185 76.4515 287.007 75.7483 285.965C75.0582 284.91 74.2314 284.012 73.2679 283.27C72.3174 282.527 71.2366 281.961 70.0257 281.57C68.8147 281.18 67.4866 280.984 66.0413 280.984C63.6715 280.984 61.5166 281.596 59.5765 282.82C57.6364 284.044 56.0934 285.848 54.9476 288.23C53.8017 290.613 53.2288 293.536 53.2288 297C53.2288 300.464 53.8082 303.387 54.9671 305.77C56.1259 308.152 57.695 309.956 59.6741 311.18C61.6533 312.404 63.8799 313.016 66.3538 313.016C68.6455 313.016 70.6637 312.527 72.4085 311.551C74.1663 310.561 75.5335 309.168 76.5101 307.371C77.4996 305.561 77.9944 303.432 77.9944 300.984L79.4788 301.297H67.4476V297H82.6819V301.297C82.6819 304.591 81.9788 307.456 80.5726 309.891C79.1793 312.326 77.2522 314.214 74.7913 315.555C72.3434 316.883 69.5309 317.547 66.3538 317.547C62.8121 317.547 59.7002 316.714 57.0179 315.047C54.3486 313.38 52.2653 311.01 50.7679 307.937C49.2835 304.865 48.5413 301.219 48.5413 297C48.5413 293.836 48.9645 290.991 49.8108 288.465C50.6702 285.926 51.8812 283.764 53.4437 281.98C55.0062 280.197 56.8551 278.829 58.9905 277.879C61.1259 276.928 63.4762 276.453 66.0413 276.453C68.1507 276.453 70.1168 276.772 71.9397 277.41C73.7757 278.035 75.4098 278.927 76.8421 280.086C78.2874 281.232 79.4918 282.605 80.4554 284.207C81.4189 285.796 82.083 287.56 82.4476 289.5H77.4476ZM94.6831 317H89.605L104.292 277H109.292L123.98 317H118.902L106.949 283.328H106.636L94.6831 317ZM96.5581 301.375H117.027V305.672H96.5581V301.375ZM155.385 287C155.151 285.021 154.201 283.484 152.534 282.391C150.867 281.297 148.823 280.75 146.401 280.75C144.63 280.75 143.081 281.036 141.753 281.609C140.438 282.182 139.409 282.97 138.667 283.973C137.938 284.975 137.573 286.115 137.573 287.391C137.573 288.458 137.827 289.376 138.335 290.145C138.856 290.9 139.52 291.531 140.327 292.039C141.134 292.534 141.981 292.944 142.866 293.27C143.751 293.582 144.565 293.836 145.307 294.031L149.37 295.125C150.411 295.398 151.57 295.776 152.846 296.258C154.135 296.74 155.366 297.397 156.538 298.23C157.723 299.051 158.699 300.105 159.467 301.395C160.236 302.684 160.62 304.266 160.62 306.141C160.62 308.302 160.053 310.255 158.921 312C157.801 313.745 156.16 315.132 153.999 316.16C151.85 317.189 149.24 317.703 146.167 317.703C143.302 317.703 140.822 317.241 138.725 316.316C136.642 315.392 135.001 314.103 133.803 312.449C132.619 310.796 131.948 308.875 131.792 306.688H136.792C136.922 308.198 137.43 309.448 138.315 310.437C139.214 311.414 140.346 312.143 141.714 312.625C143.094 313.094 144.578 313.328 146.167 313.328C148.016 313.328 149.676 313.029 151.147 312.43C152.619 311.818 153.784 310.971 154.643 309.891C155.503 308.797 155.932 307.521 155.932 306.062C155.932 304.734 155.561 303.654 154.819 302.82C154.077 301.987 153.1 301.31 151.889 300.789C150.678 300.268 149.37 299.812 147.964 299.422L143.042 298.016C139.917 297.117 137.443 295.835 135.62 294.168C133.797 292.501 132.885 290.32 132.885 287.625C132.885 285.385 133.491 283.432 134.702 281.766C135.926 280.086 137.566 278.784 139.624 277.859C141.694 276.922 144.005 276.453 146.557 276.453C149.135 276.453 151.427 276.915 153.432 277.84C155.438 278.751 157.026 280.001 158.198 281.59C159.383 283.178 160.008 284.982 160.073 287H155.385Z" fill="black"/>
<defs>
<filter id="filter0_f_1273_23" x="60" y="0" width="89" height="184" filterUnits="userSpaceOnUse" color-interpolation-filters="sRGB">
<feFlood flood-opacity="0" result="BackgroundImageFix"/>
<feBlend mode="normal" in="SourceGraphic" in2="BackgroundImageFix" result="shape"/>
<feGaussianBlur stdDeviation="6" result="effect1_foregroundBlur_1273_23"/>
</filter>
<linearGradient id="paint0_linear_1273_23" x1="104" y1="380" x2="104" y2="635" gradientUnits="userSpaceOnUse">
<stop stop-color="#424446"/>
<stop offset="0.0479414" stop-color="#424446"/>
<stop offset="0.0930637" stop-color="#242628"/>
<stop offset="0.138186" stop-color="#212425"/>
<stop offset="0.185457" stop-color="#26282B"/>
<stop offset="0.230579" stop-color="#1D1F20"/>
<stop offset="0.279999" stop-color="#232527"/>
<stop offset="0.32727" stop-color="#1C1E1F"/>
<stop offset="0.374541" stop-color="#232527"/>
<stop offset="0.421812" stop-color="#1D1E21"/>
<stop offset="0.469083" stop-color="#202325"/>
<stop offset="0.518502" stop-color="#1B1D1F"/>
<stop offset="0.557179" stop-color="#232527"/>
<stop offset="0.60445" stop-color="#1C1E20"/>
<stop offset="0.645274" stop-color="#232627"/>
<stop offset="0.696843" stop-color="#1E2021"/>
<stop offset="0.741965" stop-color="#232527"/>
<stop offset="0.791385" stop-color="#1C1E20"/>
<stop offset="0.851548" stop-color="#252729"/>
<stop offset="1" stop-color="#27292B"/>
</linearGradient>
<linearGradient id="paint1_linear_1273_23" x1="104" y1="128" x2="104" y2="393" gradientUnits="userSpaceOnUse">
<stop stop-color="#434547"/>
<stop offset="1" stop-color="#424446"/>
</linearGradient>
<linearGradient id="paint2_linear_1273_23" x1="104" y1="237" x2="104" y2="361" gradientUnits="userSpaceOnUse">
<stop stop-color="#4E4A0C"/>
<stop offset="0.331224" stop-color="#9C9312"/>
<stop offset="0.553232" stop-color="#AAA113"/>
<stop offset="0.719178" stop-color="#A09712"/>
<stop offset="1" stop-color="#58540D"/>
</linearGradient>
</defs>
</svg>
